<?xml version="1.0" encoding="UTF-8"?>
<svg xmlns="http://www.w3.org/2000/svg" width="230" height="170" viewBox="0 0 230 170">
  <defs>
    <linearGradient id="roof" x1="0" y1="0" x2="1" y2="1">
      <stop offset="0" stop-color="#b8d2dc"/>
      <stop offset=".48" stop-color="#7da1b0"/>
      <stop offset="1" stop-color="#587482"/>
    </linearGradient>
    <linearGradient id="wallL" x1="0" y1="0" x2="1" y2="1">
      <stop offset="0" stop-color="#7894a0"/>
      <stop offset="1" stop-color="#4a6571"/>
    </linearGradient>
    <linearGradient id="door" x1="0" y1="0" x2="0" y2="1">
      <stop offset="0" stop-color="#526269"/>
      <stop offset="1" stop-color="#28363c"/>
    </linearGradient>
  </defs>

  <ellipse cx="116" cy="145" rx="84" ry="17" fill="#17242a" opacity=".22"/>

  <!-- building shell -->
  <polygon points="45,65 111,31 189,69 121,103" fill="url(#roof)"/>
  <polygon points="45,65 121,103 121,145 45,107" fill="url(#wallL)"/>
  <polygon points="121,103 189,69 189,111 121,145" fill="#415c68"/>

  <!-- closed main door -->
  <polygon points="69,77 119,102 119,137 69,112" fill="url(#door)"/>
  <path d="M79 82v34M89 87v34M99 92v34M109 97v34" stroke="#788b91" stroke-width="1.3"/>
  <path d="M69 88l50 25M69 99l50 25" stroke="#1d2a30" stroke-width="1.2" opacity=".7"/>

  <!-- roof ribs and highlights -->
  <path d="M58 61l66 33M74 53l66 33M90 45l66 33M106 37l66 33" stroke="#d9ebef" stroke-opacity=".28" stroke-width="1.5"/>
  <path d="M48 66l73 36 65-32" fill="none" stroke="#d4e5e9" stroke-width="2" opacity=".42"/>

  <!-- side office -->
  <polygon points="132,104 158,91 176,100 150,113" fill="#9bb4bd"/>
  <polygon points="150,113 176,100 176,126 150,139" fill="#35515d"/>
  <polygon points="132,104 150,113 150,139 132,130" fill="#5e7d89"/>
  <rect x="154" y="112" width="13" height="10" fill="#173b49"/>
  <rect x="156" y="114" width="9" height="4" fill="#70dfff"/>

  <!-- threshold safety -->
  <path d="M64 117l56 28" stroke="#f0c84b" stroke-width="3"/>
  <path d="M68 119l8 4M82 126l8 4M96 133l8 4M110 140l8 4" stroke="#272e33" stroke-width="2.3"/>

  <circle cx="178" cy="90" r="4.2" fill="#ffca48" opacity=".34"/>
  <circle cx="178" cy="90" r="2" fill="#fff0a1"/>
</svg>