<svg xmlns="http://www.w3.org/2000/svg" width="256" height="180" viewBox="0 0 256 180">
  <defs>
    <linearGradient id="apron" x1="0" y1="0" x2="1" y2="1">
      <stop offset="0" stop-color="#dedbd2"/>
      <stop offset="0.55" stop-color="#c7c5bd"/>
      <stop offset="1" stop-color="#a6a69f"/>
    </linearGradient>
  </defs>
  <polygon points="128,24 232,76 128,130 24,78" fill="#162126" opacity="0.22"/>
  <polygon points="128,15 238,70 128,126 18,71" fill="#9b9b96"/>
  <polygon points="128,22 224,70 128,118 32,70" fill="url(#apron)"/>
  <polyline points="128,15 238,70 128,126" fill="none" stroke="#fffdf7" stroke-width="2" opacity="0.30"/>
  <polyline points="128,126 18,71 128,15" fill="none" stroke="#646b6b" stroke-width="2.5" opacity="0.32"/>
  <g stroke="#747b7c" stroke-width="1.5" opacity="0.26">
    <line x1="77" y1="45" x2="177" y2="95"/>
    <line x1="58" y1="78" x2="128" y2="113"/>
    <line x1="128" y1="27" x2="199" y2="63"/>
  </g>
  <path d="M54 72 L128 109 L202 72" fill="none" stroke="#f1c84c" stroke-width="3" opacity="0.55"/>
  <circle cx="128" cy="109" r="3" fill="#f1c84c" opacity="0.8"/>
</svg>