<svg xmlns="http://www.w3.org/2000/svg" width="320" height="200" viewBox="0 0 320 200" shape-rendering="crispEdges">
<metadata>Grid-native 7x2 runway preview. Base polygon is the exact union footprint of 64x32 construction cells.</metadata>
<g transform="translate(74 34) scale(.78)">
<polygon points="0,-16 224,96 160,128 -64,16" fill="#7b837c" stroke="#46504f" stroke-width="2"/>
<polygon points="8,-6 207,94 153,118 -46,18" fill="#303b40" stroke="#1e292e" stroke-width="2"/>
<path d="M-25 18 L188 94" stroke="#f4f2e8" stroke-width="3.8" stroke-dasharray="18 14"/>
<g stroke="#fbfaf0" stroke-width="5">
<path d="M-33 9 l16 8"/><path d="M-23 4 l16 8"/><path d="M-13 -1 l16 8"/><path d="M176 104 l16 8"/><path d="M186 99 l16 8"/><path d="M196 94 l16 8"/>
</g>
<g fill="#dff9ff" stroke="#203039" stroke-width="1.4">
<circle cx="-30" cy="13" r="2.6"/><circle cx="4" cy="25.1" r="2.6"/><circle cx="38" cy="37.2" r="2.6"/><circle cx="72" cy="49.3" r="2.6"/><circle cx="106" cy="61.4" r="2.6"/><circle cx="140" cy="73.5" r="2.6"/><circle cx="174" cy="85.6" r="2.6"/><circle cx="208" cy="97.7" r="2.6"/>
<circle cx="-16" cy="31" r="2.6"/><circle cx="18" cy="43.1" r="2.6"/><circle cx="52" cy="55.2" r="2.6"/><circle cx="86" cy="67.3" r="2.6"/><circle cx="120" cy="79.4" r="2.6"/><circle cx="154" cy="91.5" r="2.6"/><circle cx="188" cy="103.6" r="2.6"/>
</g>
<path d="M0 -16 L224 96" stroke="#ffffff" stroke-width="1.6" opacity=".18"/>
<path d="M160 128 L-64 16" stroke="#10181c" stroke-width="2" opacity=".26"/>
</g></svg>