<svg xmlns="http://www.w3.org/2000/svg" width="256" height="192" viewBox="0 0 256 192" shape-rendering="crispEdges">
<polygon points="22,133 104,84 232,119 149,169" fill="#11191e" opacity=".55"/>
<polygon points="30,121 103,78 223,112 149,156" fill="#6a7275"/>
<rect x="69" y="75" width="31" height="54" fill="#d9d9d4"/><polygon points="69,75 84,66 100,71 85,80" fill="#f1ede2"/><rect x="69" y="86" width="31" height="9" fill="#bb3d34"/>
<rect x="108" y="62" width="34" height="62" fill="#d1d2cf"/><polygon points="108,62 124,53 142,59 126,68" fill="#efeae0"/><rect x="108" y="76" width="34" height="9" fill="#b83c34"/>
<rect x="151" y="71" width="31" height="55" fill="#d8d7d3"/><polygon points="151,71 166,62 182,67 167,76" fill="#f0ece2"/><rect x="151" y="83" width="31" height="9" fill="#bd4137"/>
<rect x="84" y="68" width="4" height="8" fill="#9e302b"/><rect x="124" y="54" width="4" height="8" fill="#9e302b"/><rect x="166" y="63" width="4" height="8" fill="#9e302b"/>
<polygon points="177,124 202,109 220,114 196,128" fill="#d94b37"/><rect x="185" y="118" width="22" height="9" fill="#bd342c"/><rect x="188" y="127" width="4" height="4" fill="#182227"/><rect x="204" y="126" width="4" height="4" fill="#182227"/>
<polygon points="48,119 70,106 85,111 64,124" fill="#e2ae32"/><rect x="55" y="114" width="18" height="8" fill="#ca8d1e"/><rect x="58" y="122" width="4" height="4" fill="#182227"/><rect x="70" y="121" width="4" height="4" fill="#182227"/>
<rect x="97" y="97" width="56" height="4" fill="#a82e28"/><rect x="124" y="94" width="4" height="29" fill="#a82e28"/>
</svg>